<svg xmlns="http://www.w3.org/2000/svg" width="30" height="30" viewBox="0 0 30 30">
    <g fill="none" fill-rule="evenodd">
        <g>
            <g>
                <path d="M0 0L30 0 30 30 0 30z" transform="translate(-600 -432) translate(600 432)"/>
                <path fill="#44D7B6" fill-rule="nonzero" d="M20.625 3.75c-2.175 0-4.262 1.013-5.625 2.612-1.363-1.6-3.45-2.612-5.625-2.612-3.85 0-6.875 3.025-6.875 6.875 0 4.725 4.25 8.575 10.688 14.425L15 26.687l1.813-1.65C23.25 19.2 27.5 15.35 27.5 10.626c0-3.85-3.025-6.875-6.875-6.875zm-5.5 19.438l-.125.125-.125-.125C8.925 17.8 5 14.238 5 10.624c0-2.5 1.875-4.375 4.375-4.375 1.925 0 3.8 1.237 4.463 2.95h2.337c.65-1.712 2.525-2.95 4.45-2.95 2.5 0 4.375 1.875 4.375 4.375 0 3.613-3.925 7.175-9.875 12.563z" transform="translate(-600 -432) translate(600 432)"/>
            </g>
        </g>
    </g>
</svg>
